<svg xmlns="http://www.w3.org/2000/svg" xmlns:xlink="http://www.w3.org/1999/xlink" contentStyleType="text/css" data-diagram-type="ACTIVITY" height="632px" preserveAspectRatio="none" style="width:576px;height:632px;background:#FFFFFF;" version="1.1" viewBox="0 0 576 632" width="576px" zoomAndPan="magnify"><title>Baseline Algorithm: Simple Greedy Strategy</title><defs/><g><text fill="#000000" font-family="Verdana" font-size="22" font-weight="bold" lengthAdjust="spacing" textLength="543.1357" x="15" y="37.1182">Baseline Algorithm: Simple Greedy Strategy</text><ellipse cx="290.4365" cy="62.7373" fill="#FFFFFF" rx="10" ry="10" style="stroke:#000000;stroke-width:1;"/><rect fill="#FFFFFF" height="49.168" rx="12.5" ry="12.5" style="stroke:#000000;stroke-width:1;" width="292.2266" x="144.3232" y="92.7373"/><text fill="#000000" font-family="Verdana" font-size="12" lengthAdjust="spacing" textLength="94.6113" x="154.3232" y="114.8018">Initial Partition:</text><text fill="#000000" font-family="Verdana" font-size="12" lengthAdjust="spacing" textLength="272.2266" x="154.3232" y="129.3857">Randomly create balanced partitions A and B</text><rect fill="#FFFFFF" height="34.584" rx="12.5" ry="12.5" style="stroke:#000000;stroke-width:1;" width="211.4375" x="184.7178" y="218.4644"/><text fill="#000000" font-family="Verdana" font-size="12" lengthAdjust="spacing" textLength="191.4375" x="194.7178" y="240.5288">Calculate D-values for all nodes</text><rect fill="#FFFFFF" height="49.168" rx="12.5" ry="12.5" style="stroke:#000000;stroke-width:1;" width="202.9766" x="188.9482" y="273.0483"/><text fill="#000000" font-family="Verdana" font-size="12" lengthAdjust="spacing" textLength="182.9766" x="198.9482" y="295.1128">Find best single swap (a*, b*)</text><text fill="#000000" font-family="Verdana" font-size="12" lengthAdjust="spacing" textLength="156.375" x="198.9482" y="309.6968">that maximizes gain(a, b)</text><polygon fill="#FFFFFF" points="248.448,347.1086,332.425,347.1086,344.425,359.1086,332.425,371.1086,248.448,371.1086,236.448,359.1086,248.448,347.1086" style="stroke:#000000;stroke-width:1;"/><text fill="#000000" font-family="Verdana" font-size="11" lengthAdjust="spacing" textLength="83.9771" x="248.448" y="363.4834">max_gain &gt; 0?</text><text fill="#000000" font-family="Verdana" font-size="11" lengthAdjust="spacing" textLength="18.7935" x="217.6545" y="356.7991">yes</text><text fill="#000000" font-family="Verdana" font-size="11" lengthAdjust="spacing" textLength="13.6372" x="344.425" y="356.7991">no</text><rect fill="#FFFFFF" height="63.752" rx="12.5" ry="12.5" style="stroke:#000000;stroke-width:1;" width="154.5664" x="114.897" y="381.1086"/><text fill="#000000" font-family="Verdana" font-size="12" lengthAdjust="spacing" textLength="87.9844" x="124.897" y="403.1731">Execute swap:</text><text fill="#000000" font-family="Verdana" font-size="12" lengthAdjust="spacing" textLength="134.3203" x="124.897" y="417.7571">Move a* to partition B</text><text fill="#000000" font-family="Verdana" font-size="12" lengthAdjust="spacing" textLength="134.5664" x="124.897" y="432.3411">Move b* to partition A</text><rect fill="#FFFFFF" height="34.584" rx="12.5" ry="12.5" style="stroke:#000000;stroke-width:1;" width="175.25" x="104.5552" y="473.4446"/><text fill="#000000" font-family="Verdana" font-size="12" lengthAdjust="spacing" textLength="155.25" x="114.5552" y="495.509">Continue to next iteration</text><rect fill="#FFFFFF" height="49.168" rx="12.5" ry="12.5" style="stroke:#000000;stroke-width:1;" width="177.7754" x="299.8052" y="381.1086"/><text fill="#000000" font-family="Verdana" font-size="12" lengthAdjust="spacing" textLength="157.7754" x="309.8052" y="403.1731">No improvement possible,</text><text fill="#000000" font-family="Verdana" font-size="12" lengthAdjust="spacing" textLength="126.7793" x="309.8052" y="417.7571">algorithm terminates</text><polygon fill="#FFFFFF" points="188.5281,161.9053,392.345,161.9053,404.345,173.9053,392.345,185.9053,188.5281,185.9053,176.5281,173.9053,188.5281,161.9053" style="stroke:#000000;stroke-width:1;"/><text fill="#000000" font-family="Verdana" font-size="11" lengthAdjust="spacing" textLength="18.7935" x="294.4365" y="196.9644">yes</text><text fill="#000000" font-family="Verdana" font-size="11" lengthAdjust="spacing" textLength="203.8169" x="188.5281" y="178.28">Improvement found in last iteration?</text><text fill="#000000" font-family="Verdana" font-size="11" lengthAdjust="spacing" textLength="91.0562" x="85.4719" y="171.5957">no improvement</text><rect fill="#FFFFFF" height="34.584" rx="12.5" ry="12.5" style="stroke:#000000;stroke-width:1;" width="229.0918" x="175.8906" y="550.0286"/><text fill="#000000" font-family="Verdana" font-size="12" lengthAdjust="spacing" textLength="209.0918" x="185.8906" y="572.093">Output final partitions and cut size</text><ellipse cx="290.4365" cy="615.6125" fill="none" rx="11" ry="11" style="stroke:#000000;stroke-width:1;"/><ellipse cx="290.4365" cy="615.6125" fill="#FFFFFF" rx="6" ry="6" style="stroke:#000000;stroke-width:1;"/><line style="stroke:#000000;stroke-width:1;" x1="290.4365" x2="290.4365" y1="72.7373" y2="92.7373"/><polygon fill="#000000" points="286.4365,82.7373,290.4365,92.7373,294.4365,82.7373,290.4365,86.7373" style="stroke:#000000;stroke-width:1;"/><line style="stroke:#000000;stroke-width:1;" x1="290.4365" x2="290.4365" y1="253.0483" y2="273.0483"/><polygon fill="#000000" points="286.4365,263.0483,290.4365,273.0483,294.4365,263.0483,290.4365,267.0483" style="stroke:#000000;stroke-width:1;"/><line style="stroke:#000000;stroke-width:1;" x1="192.1802" x2="192.1802" y1="444.8606" y2="473.4446"/><polygon fill="#000000" points="188.1802,463.4446,192.1802,473.4446,196.1802,463.4446,192.1802,467.4446" style="stroke:#000000;stroke-width:1;"/><line style="stroke:#000000;stroke-width:1;" x1="388.6929" x2="388.6929" y1="430.2766" y2="458.8606"/><line style="stroke:#000000;stroke-width:1;" x1="388.6929" x2="82.5552" y1="458.8606" y2="458.8606"/><polygon fill="#000000" points="92.5552,454.8606,82.5552,458.8606,92.5552,462.8606,88.5552,458.8606" style="stroke:#000000;stroke-width:1;"/><line style="stroke:#000000;stroke-width:1;" x1="236.448" x2="192.1802" y1="359.1086" y2="359.1086"/><line style="stroke:#000000;stroke-width:1;" x1="192.1802" x2="192.1802" y1="359.1086" y2="381.1086"/><polygon fill="#000000" points="188.1802,371.1086,192.1802,381.1086,196.1802,371.1086,192.1802,375.1086" style="stroke:#000000;stroke-width:1;"/><line style="stroke:#000000;stroke-width:1;" x1="344.425" x2="388.6929" y1="359.1086" y2="359.1086"/><line style="stroke:#000000;stroke-width:1;" x1="388.6929" x2="388.6929" y1="359.1086" y2="381.1086"/><polygon fill="#000000" points="384.6929,371.1086,388.6929,381.1086,392.6929,371.1086,388.6929,375.1086" style="stroke:#000000;stroke-width:1;"/><line style="stroke:#000000;stroke-width:1;" x1="192.1802" x2="192.1802" y1="508.0286" y2="513.0286"/><line style="stroke:#000000;stroke-width:1;" x1="192.1802" x2="491.5806" y1="513.0286" y2="513.0286"/><polygon fill="#000000" points="487.5806,342.2163,491.5806,332.2163,495.5806,342.2163,491.5806,338.2163" style="stroke:#000000;stroke-width:1;"/><line style="stroke:#000000;stroke-width:1;" x1="491.5806" x2="491.5806" y1="173.9053" y2="513.0286"/><line style="stroke:#000000;stroke-width:1;" x1="491.5806" x2="404.345" y1="173.9053" y2="173.9053"/><polygon fill="#000000" points="414.345,169.9053,404.345,173.9053,414.345,177.9053,410.345,173.9053" style="stroke:#000000;stroke-width:1;"/><line style="stroke:#000000;stroke-width:1;" x1="290.4365" x2="290.4365" y1="322.2163" y2="347.1086"/><polygon fill="#000000" points="286.4365,337.1086,290.4365,347.1086,294.4365,337.1086,290.4365,341.1086" style="stroke:#000000;stroke-width:1;"/><line style="stroke:#000000;stroke-width:1;" x1="290.4365" x2="290.4365" y1="185.9053" y2="218.4644"/><polygon fill="#000000" points="286.4365,208.4644,290.4365,218.4644,294.4365,208.4644,290.4365,212.4644" style="stroke:#000000;stroke-width:1;"/><line style="stroke:#000000;stroke-width:1;" x1="176.5281" x2="82.5552" y1="173.9053" y2="173.9053"/><polygon fill="#000000" points="78.5552,334.2163,82.5552,344.2163,86.5552,334.2163,82.5552,338.2163" style="stroke:#000000;stroke-width:1;"/><line style="stroke:#000000;stroke-width:1;" x1="82.5552" x2="82.5552" y1="173.9053" y2="530.0286"/><line style="stroke:#000000;stroke-width:1;" x1="82.5552" x2="290.4365" y1="530.0286" y2="530.0286"/><line style="stroke:#000000;stroke-width:1;" x1="290.4365" x2="290.4365" y1="530.0286" y2="550.0286"/><polygon fill="#000000" points="286.4365,540.0286,290.4365,550.0286,294.4365,540.0286,290.4365,544.0286" style="stroke:#000000;stroke-width:1;"/><line style="stroke:#000000;stroke-width:1;" x1="290.4365" x2="290.4365" y1="141.9053" y2="161.9053"/><polygon fill="#000000" points="286.4365,151.9053,290.4365,161.9053,294.4365,151.9053,290.4365,155.9053" style="stroke:#000000;stroke-width:1;"/><line style="stroke:#000000;stroke-width:1;" x1="290.4365" x2="290.4365" y1="584.6125" y2="604.6125"/><polygon fill="#000000" points="286.4365,594.6125,290.4365,604.6125,294.4365,594.6125,290.4365,598.6125" style="stroke:#000000;stroke-width:1;"/><!--SRC=[NLBBJkD04BpFLpISd0WapewqAE4b3h0h-81LE-uaBSOzbgSD2LzFURqGWmyZsrLJrLCr9xwJHgYDh1PSFGgThZXBL1DQnctgr7TDIS_QjC3kEf7wGC_UiSlsS1f2TkuyXFBUr9KZ_S4dtfALuOcjJaqyqBeJqAdYoBQMcjfFJgObWKIhHGXlEuL1ST-qNNh5JEQqIJr0DOgSdTG5hjXrEIFDL1mapmBXAQyuhliuM5oVltBi9MDhHnmZMQebBqRQhKAj4aXbjItCyXktLF3yZAhvAEKxTcfuhus-GsMBL0e6FCE00wuRAW3_7G3wHHSO1G7QP9X_JZTxMVS-6fHVlnzmBk8vUJecGAllSFK3NYwEgbV9NAsNWM6odoGoaYHc16XfCiXZ8fq4sgQSjOfoziNWpue9MeqQGin7omh5lOpQLkicOFrVatqJdk42_EwzxT4PDEAquQ5VX87CtsKnt9VKXWy0]--></g></svg>